<?xml version="1.0" encoding="iso-8859-1"?>
<!-- Generator: Adobe Illustrator 19.0.0, SVG Export Plug-In . SVG Version: 6.00 Build 0)  -->
<svg version="1.1" id="Layer_1" xmlns="http://www.w3.org/2000/svg" xmlns:xlink="http://www.w3.org/1999/xlink" x="0px" y="0px"
	 viewBox="0 0 512 512" style="enable-background:new 0 0 512 512;" xml:space="preserve">
<g id="XMLID_1467_">
	<g id="XMLID_5924_">
		<g id="XMLID_7103_">
			<rect id="XMLID_6759_" x="43.172" y="94.855" style="fill:#ADACB2;" width="45.022" height="49.66"/>
			<rect id="XMLID_6687_" x="434.921" y="103.981" style="fill:#FC819C;" width="52.267" height="47.562"/>
			<polygon id="XMLID_6787_" style="fill:#C7C5CC;" points="393.203,144.36 122.289,144.36 137.198,107.157 151.933,70.372 
				363.559,70.372 378.294,107.157 			"/>
			<polygon id="XMLID_7270_" style="fill:#ADACB2;" points="135.392,111.664 122.289,144.36 393.203,144.36 380.1,111.664 			"/>
			<path id="XMLID_6689_" style="fill:#D8D7DA;" d="M496.5,441.628h-481c-4.418,0-8-3.582-8-8V141.832c0-4.418,3.582-8,8-8h481
				c4.418,0,8,3.582,8,8v291.796C504.5,438.046,500.918,441.628,496.5,441.628z"/>
			<path id="XMLID_7272_" style="fill:#C7C5CC;" d="M496.5,133.832h-16.167v307.796H496.5c4.418,0,8-3.582,8-8V141.832
				C504.5,137.413,500.918,133.832,496.5,133.832z"/>
			<path id="XMLID_5426_" style="fill:#C7C5CC;" d="M15.5,133.832h16.167v307.796H15.5c-4.418,0-8-3.582-8-8V141.832
				C7.5,137.413,11.082,133.832,15.5,133.832z"/>
			<circle id="XMLID_7180_" style="fill:#C7C5CC;" cx="270.243" cy="291.223" r="144.58"/>
			<path id="XMLID_6982_" style="fill:#FFEB96;" d="M153.199,315.715h-37.983c-12.831,0-23.233-10.402-23.233-23.233v0
				c0-12.831,10.402-23.233,23.233-23.233h37.983V315.715z"/>
			<circle id="XMLID_6688_" style="fill:#9D9DA3;" cx="270.243" cy="291.223" r="123.629"/>
			<circle id="XMLID_6779_" style="fill:#8FE5D8;" cx="270.243" cy="291.223" r="92.515"/>
			<path id="XMLID_5187_" style="fill:#63CEC1;" d="M362.76,291.22c0,51.1-41.42,92.52-92.52,92.52c-3.88,0-7.71-0.24-11.46-0.7
				c45.68-5.65,81.05-44.6,81.05-91.82c0-47.21-35.37-86.16-81.05-91.81c3.75-0.46,7.58-0.7,11.46-0.7
				C321.34,198.71,362.76,240.13,362.76,291.22z"/>
			<rect id="XMLID_7072_" x="418.796" y="169.478" style="fill:#FFF4CA;" width="53.66" height="37.267"/>
		</g>
	</g>
	<g id="XMLID_558_">
		<path id="XMLID_617_" d="M496.5,126.332h-1.812v-22.35c0-4.142-3.358-7.5-7.5-7.5h-52.267c-4.142,0-7.5,3.358-7.5,7.5v22.35
			h-33.825c-0.035-0.826-0.2-1.66-0.525-2.471l-22.551-56.277c-1.14-2.845-3.897-4.71-6.962-4.71H341.5c-4.142,0-7.5,3.358-7.5,7.5
			s3.358,7.5,7.5,7.5h16.984l19.418,48.459H137.589l19.419-48.459H308.5c4.142,0,7.5-3.358,7.5-7.5s-3.358-7.5-7.5-7.5H151.934
			c-3.065,0-5.822,1.865-6.962,4.71L122.42,123.86c-0.325,0.811-0.49,1.645-0.525,2.472H95.694V94.855c0-4.142-3.358-7.5-7.5-7.5
			H43.172c-4.142,0-7.5,3.358-7.5,7.5v31.477h-5.941V114.55c0-4.142-3.358-7.5-7.5-7.5s-7.5,3.358-7.5,7.5v11.821
			C6.542,126.775,0,133.544,0,141.832v291.796c0,8.547,6.953,15.5,15.5,15.5H98c4.142,0,7.5-3.358,7.5-7.5s-3.358-7.5-7.5-7.5H15.5
			c-0.276,0-0.5-0.224-0.5-0.5v-16.105h149.328c4.142,0,7.5-3.358,7.5-7.5s-3.358-7.5-7.5-7.5H15V141.832c0-0.276,0.224-0.5,0.5-0.5
			h481c0.276,0,0.5,0.224,0.5,0.5v260.691h-71.316c-4.142,0-7.5,3.358-7.5,7.5s3.358,7.5,7.5,7.5H497v16.105
			c0,0.276-0.224,0.5-0.5,0.5H131.663c-4.142,0-7.5,3.358-7.5,7.5s3.358,7.5,7.5,7.5H496.5c8.547,0,15.5-6.953,15.5-15.5V141.832
			C512,133.285,505.047,126.332,496.5,126.332z M442.421,111.481h37.267v14.85h-37.267V111.481z M80.694,126.332h-6.114v-23.977
			h6.114V126.332z M50.672,102.355h8.908v23.977h-8.908V102.355z"/>
		<path id="XMLID_620_" d="M364.065,256.505c-1.438-3.885-5.751-5.867-9.637-4.43c-3.885,1.438-5.868,5.753-4.43,9.637
			c3.49,9.428,5.26,19.357,5.26,29.51c0,46.877-38.138,85.015-85.015,85.015s-85.015-38.137-85.015-85.015
			s38.138-85.015,85.015-85.015c25.397,0,49.268,11.228,65.493,30.805c2.642,3.188,7.37,3.633,10.56,0.989
			c3.189-2.643,3.632-7.371,0.989-10.56c-19.083-23.027-47.164-36.233-77.042-36.233c-55.148,0-100.015,44.867-100.015,100.015
			s44.867,100.015,100.015,100.015s100.015-44.866,100.015-100.015C370.258,279.286,368.174,267.606,364.065,256.505z"/>
		<path id="XMLID_625_" d="M401.371,291.223c0-72.305-58.824-131.128-131.128-131.128c-62.173,0-114.378,43.494-127.787,101.654
			h-27.239c-16.946,0-30.733,13.787-30.733,30.733s13.787,30.733,30.733,30.733h27.852c14.317,56.891,65.902,99.136,127.174,99.136
			C342.547,422.351,401.371,363.527,401.371,291.223z M115.216,308.215c-8.675,0-15.733-7.058-15.733-15.733
			s7.058-15.733,15.733-15.733h24.701c-0.525,4.755-0.803,9.582-0.803,14.475c0,5.758,0.377,11.428,1.1,16.992H115.216z
			 M270.243,407.351c-64.034,0-116.128-52.095-116.128-116.128s52.095-116.128,116.128-116.128s116.128,52.095,116.128,116.128
			S334.276,407.351,270.243,407.351z"/>
		<path id="XMLID_629_" d="M472.456,214.245c4.142,0,7.5-3.358,7.5-7.5v-37.267c0-4.142-3.358-7.5-7.5-7.5h-53.66
			c-4.142,0-7.5,3.358-7.5,7.5v37.267c0,4.142,3.358,7.5,7.5,7.5H472.456z M426.296,176.978h38.66v22.267h-38.66V176.978z"/>
		<path id="XMLID_630_" d="M193.577,101.042c0,4.142,3.358,7.5,7.5,7.5H319.66c4.142,0,7.5-3.358,7.5-7.5s-3.358-7.5-7.5-7.5
			H201.077C196.935,93.542,193.577,96.9,193.577,101.042z"/>
	</g>
</g>
<g>
</g>
<g>
</g>
<g>
</g>
<g>
</g>
<g>
</g>
<g>
</g>
<g>
</g>
<g>
</g>
<g>
</g>
<g>
</g>
<g>
</g>
<g>
</g>
<g>
</g>
<g>
</g>
<g>
</g>
</svg>
